<?xml version="1.0" encoding="iso-8859-1"?>
<!-- Generator: Adobe Illustrator 19.0.0, SVG Export Plug-In . SVG Version: 6.00 Build 0)  -->
<svg version="1.1" id="Capa_1" xmlns="http://www.w3.org/2000/svg" xmlns:xlink="http://www.w3.org/1999/xlink" x="0px" y="0px"
	 viewBox="0 0 50.254 50.254" style="enable-background:new 0 0 50.254 50.254;" xml:space="preserve">
<g>
	<path d="M49.254,11.957H24.473l-2.891-7.885c-0.145-0.394-0.52-0.656-0.939-0.656H1c-0.552,0-1,0.447-1,1v35.657
		c0,0.553,0.448,1,1,1c0.552,0,1-0.447,1-1V5.416h17.945l2.398,6.541H8.401c-0.552,0-1,0.447-1,1c0,0.553,0.448,1,1,1h15.373h24.479
		v30.881H1c-0.552,0-1,0.447-1,1c0,0.553,0.448,1,1,1h48.254c0.552,0,1-0.447,1-1V12.957C50.254,12.404,49.806,11.957,49.254,11.957
		z"/>
	<path d="M24.995,23.356c-0.471-0.289-1.087-0.14-1.375,0.332c-1.049,1.716-1.604,3.69-1.604,5.709c0,6.043,4.917,10.96,10.96,10.96
		c6.043,0,10.96-4.917,10.96-10.96s-4.917-10.96-10.96-10.96c-1.83,0-3.642,0.461-5.241,1.333c-0.485,0.265-0.664,0.872-0.399,1.356
		c0.265,0.484,0.871,0.665,1.357,0.399c1.306-0.712,2.787-1.089,4.283-1.089c4.94,0,8.96,4.02,8.96,8.96s-4.02,8.96-8.96,8.96
		s-8.96-4.02-8.96-8.96c0-1.65,0.453-3.264,1.31-4.666C25.614,24.261,25.466,23.645,24.995,23.356z"/>
	<path d="M32.976,23.487c-0.552,0-1,0.447-1,1v3.91h-3.911c-0.552,0-1,0.447-1,1s0.448,1,1,1h3.911v3.911c0,0.553,0.448,1,1,1
		c0.552,0,1-0.447,1-1v-3.911h3.911c0.552,0,1-0.447,1-1s-0.448-1-1-1h-3.911v-3.91C33.976,23.935,33.528,23.487,32.976,23.487z"/>
</g>
<g>
</g>
<g>
</g>
<g>
</g>
<g>
</g>
<g>
</g>
<g>
</g>
<g>
</g>
<g>
</g>
<g>
</g>
<g>
</g>
<g>
</g>
<g>
</g>
<g>
</g>
<g>
</g>
<g>
</g>
</svg>
